<?xml version="1.0" encoding="UTF-8"?>
<svg version="1.1" xmlns="http://www.w3.org/2000/svg" width="2000" height="2000">
<path d="M0 0 C660 0 1320 0 2000 0 C2000 660 2000 1320 2000 2000 C1340 2000 680 2000 0 2000 C0 1340 0 680 0 0 Z " fill="#FEFEFE" transform="translate(0,0)"/>
<path d="M0 0 C0.87914062 0.46277344 1.75828125 0.92554688 2.6640625 1.40234375 C9.24395237 5.07934103 14.64159417 9.72732866 20 15 C20.77472656 15.76183594 21.54945313 16.52367187 22.34765625 17.30859375 C28.58667209 23.82585043 32.88215067 31.05454623 37 39 C37.69222656 40.32257812 37.69222656 40.32257812 38.3984375 41.671875 C44.8424762 54.88831107 48.59786145 69.55514021 51 84 C51.19335938 85.10085938 51.38671875 86.20171875 51.5859375 87.3359375 C54.38359206 104.73005064 54.16377468 122.43327563 54 140 C56.64 140 59.28 140 62 140 C62.06912598 138.93011841 62.06912598 138.93011841 62.13964844 137.83862305 C62.70701892 130.05493048 63.80825426 122.47938958 65.25 114.8125 C65.58052368 113.04302002 65.58052368 113.04302002 65.91772461 111.23779297 C67.71005766 101.93445828 70.09223757 93.00531108 73 84 C73.29261719 82.95070313 73.58523438 81.90140625 73.88671875 80.8203125 C82.5981366 49.83762276 100.37992381 19.0180753 129.0546875 2.84082031 C138.66580163 -2.25503527 148.33237067 -5.78728213 159 -8 C160.05703125 -8.22429688 161.1140625 -8.44859375 162.203125 -8.6796875 C189.60764421 -13.51188533 218.43984838 -9.24479615 241.85498047 6.22558594 C245.73695224 8.9612107 249.38988967 11.91657716 253 15 C253.66257812 15.56074219 254.32515625 16.12148438 255.0078125 16.69921875 C289.5011124 48.54535843 296.36175987 103.92369856 299 148 C299.29409256 155.51559421 299.25573012 163.03281499 299.22705078 170.55273438 C299.22648448 172.68432612 299.22680748 174.81591825 299.22793579 176.94750977 C299.22850177 182.64842159 299.21687201 188.34924656 299.20278788 194.05013847 C299.19015245 200.03980933 299.18910005 206.02948291 299.18673706 212.01916504 C299.18055949 223.32316141 299.1641999 234.62711837 299.14403808 245.93109751 C299.11734666 261.23324303 299.1066763 276.53539958 299.09503365 291.83756256 C299.07631596 315.8917378 299.03644571 339.94582995 299 364 C266 364 233 364 199 364 C198.93941406 349.5315625 198.87882812 335.063125 198.81640625 320.15625 C198.77590057 310.97786192 198.73515967 301.79947588 198.69335938 292.62109375 C198.62708897 278.0600689 198.56176544 263.49904432 198.50268555 248.93798828 C198.45964717 238.33167693 198.41332129 227.72538578 198.36312145 217.11910582 C198.33667785 211.50822829 198.31183043 205.89735437 198.29092598 200.28645325 C198.27115593 194.9940167 198.24695555 189.70161805 198.21950912 184.40921593 C198.21024528 182.47764979 198.20253316 180.54607541 198.19658089 178.61449623 C198.06344164 129.90456096 198.06344164 129.90456096 175.5390625 88.1640625 C165.06446036 79.23647852 154.06600668 78.4271619 141 79 C128.05949632 80.08132976 117.91475302 86.96078271 109 96 C108.06220703 96.92232422 108.06220703 96.92232422 107.10546875 97.86328125 C94.27160602 111.39243225 86.88691649 131.3229033 82 149 C81.65195313 150.19753906 81.30390625 151.39507813 80.9453125 152.62890625 C73.78743613 179.67902044 73.38600718 207.87988318 73.39249516 235.6643002 C73.38929636 240.20057289 73.36353922 244.7367264 73.34051514 249.27293396 C73.30047114 257.80354019 73.27973831 266.33407107 73.26654124 274.86475652 C73.24747265 286.4341887 73.19735952 298.00348802 73.14929771 309.57282925 C73.07472208 327.71521232 73.04057378 345.85743509 73 364 C40.66 364 8.32 364 -25 364 C-25.03738281 349.19125 -25.07476563 334.3825 -25.11328125 319.125 C-25.14357858 309.70962627 -25.17461841 300.29426455 -25.20898438 290.87890625 C-25.26332238 275.95427575 -25.31474137 261.02967853 -25.34643555 246.10498047 C-25.36953961 235.23193786 -25.40307398 224.35898375 -25.44870156 213.48601151 C-25.47246781 207.73848446 -25.49130456 201.99104415 -25.49761391 196.24346924 C-23.42648546 139.37442515 -23.42648546 139.37442515 -46.31640625 89.3828125 C-55.39983192 81.92217981 -65.20212951 78.41950255 -76.875 78.5625 C-77.75341553 78.57079834 -78.63183105 78.57909668 -79.53686523 78.58764648 C-91.23543207 78.89177242 -99.56139819 83.29829683 -109 90 C-109.63679688 90.44988281 -110.27359375 90.89976562 -110.9296875 91.36328125 C-134.66458848 109.9027546 -143.59976806 147.36501449 -147.23886395 175.57573223 C-149.40950461 194.06714808 -149.48071868 212.47165612 -149.50611091 231.06558204 C-149.51564986 235.75802916 -149.54186222 240.45038652 -149.56611633 245.14277649 C-149.60936647 253.98168444 -149.63816566 262.82057457 -149.66143972 271.65955526 C-149.69384253 283.63673372 -149.7492451 295.61380609 -149.80318546 307.59090328 C-149.88727543 326.39390343 -149.9412212 345.19686418 -150 364 C-183 364 -216 364 -250 364 C-250.12966989 333.22547352 -250.25760887 302.45094179 -250.38218227 271.67639439 C-250.39718694 267.97013525 -250.41221061 264.2638762 -250.42724609 260.55761719 C-250.43023671 259.82034933 -250.43322732 259.08308148 -250.43630856 258.32347217 C-250.47781059 248.10169803 -250.52031962 237.87992855 -250.56369197 227.65816218 C-250.63881026 209.95441004 -250.7117962 192.25065033 -250.78125 174.546875 C-250.78399162 173.84918652 -250.78673324 173.15149805 -250.78955793 172.43266749 C-251.01497698 114.95487621 -251.05349303 57.4782636 -251 0 C-223.28 0 -195.56 0 -167 0 C-166.90773891 33.67529799 -167.07358185 67.32833287 -167.5 101 C-167.51195782 101.94456181 -167.52391563 102.88912361 -167.53623581 103.8623085 C-167.68504509 115.57495082 -167.8397173 127.28750916 -168 139 C-165.36 139 -162.72 139 -160 139 C-159.94054199 138.35377686 -159.88108398 137.70755371 -159.81982422 137.04174805 C-156.72949822 104.63885471 -150.11507198 71.64163309 -134 43 C-133.42636719 41.93007813 -132.85273437 40.86015625 -132.26171875 39.7578125 C-128.24681469 32.5032962 -123.50092884 26.1932226 -118 20 C-117.32453125 19.22914063 -116.6490625 18.45828125 -115.953125 17.6640625 C-87.96982622 -12.31804333 -35.66740366 -19.49492337 0 0 Z " fill="#0B59BE" transform="translate(1140,862)"/>
<path d="M0 0 C33.33 0 66.66 0 101 0 C101.03738281 14.75074219 101.07476563 29.50148438 101.11328125 44.69921875 C101.14358755 54.09180596 101.17463403 63.48438127 101.20898438 72.87695312 C101.26326851 87.75723135 101.31468915 102.6374766 101.34643555 117.51782227 C101.36958025 128.35978295 101.40315799 139.20165549 101.44870156 150.04354602 C101.47241427 155.77167028 101.49128543 161.49970845 101.49761391 167.22788048 C99.12840722 224.73644566 99.12840722 224.73644566 122.5859375 274.80859375 C134.2132068 285.36344501 147.41457101 286.82442526 162.53515625 286.4140625 C177.7752048 285.57516074 192.57508226 278.02227902 203 267 C215.03663933 252.9378527 222.87176453 235.06544678 227.0625 217.1875 C227.31999023 216.09800049 227.57748047 215.00850098 227.84277344 213.88598633 C229.94670318 204.72562554 231.59571078 195.53413627 232.63484192 186.19122314 C232.8944411 183.9225101 233.18083111 181.65679276 233.48550415 179.39369202 C235.61945276 162.35436558 235.35239371 145.19892775 235.40471697 128.05767918 C235.42053772 123.54270904 235.44726551 119.0278025 235.4727478 114.51287842 C235.51920504 105.99602863 235.55610712 97.47916643 235.58942068 88.96225619 C235.63509434 77.43017532 235.69584425 65.89817396 235.75566864 54.36615944 C235.8492892 36.24414651 235.92303977 18.12210909 236 0 C269 0 302 0 336 0 C336 120.12 336 240.24 336 364 C308.28 364 280.56 364 252 364 C251.95989119 343.05428846 251.95989119 343.05428846 251.95117188 333.80078125 C251.94530044 327.60008845 251.93853256 321.39941101 251.92456055 315.19873047 C251.86148509 286.45060117 252.2028097 257.73743095 253 229 C250.36 229 247.72 229 245 229 C244.99742187 229.74636719 244.99484375 230.49273438 244.9921875 231.26171875 C243.75889935 267.31484232 231.20355218 311.39945804 207 339 C206.02353516 340.20849609 206.02353516 340.20849609 205.02734375 341.44140625 C194.71037603 353.76391535 181.84211336 361.34823359 167 367 C166.33782471 367.26216309 165.67564941 367.52432617 164.9934082 367.79443359 C160.73121754 369.45425607 156.55306005 370.68882368 152.0625 371.625 C150.93972656 371.86476563 149.81695313 372.10453125 148.66015625 372.3515625 C116.65572516 378.0215044 81.6232783 374.06276366 54.4375 355.375 C43.37818534 346.92170941 34.19299669 336.91878228 27 325 C26.63455078 324.4033252 26.26910156 323.80665039 25.89257812 323.19189453 C10.90606073 298.25116086 5.05617725 269.55961254 2 241 C1.88059032 239.89702863 1.88059032 239.89702863 1.75876832 238.77177501 C0.25621374 224.60962098 -0.28036026 210.63337014 -0.22705078 196.39892578 C-0.22648474 194.23807277 -0.22680697 192.07721937 -0.22793579 189.91636658 C-0.22850279 184.12649685 -0.21685584 178.33671229 -0.20278788 172.54686213 C-0.19017009 166.46775923 -0.1891014 160.38865376 -0.18673706 154.30953979 C-0.18055443 142.83193891 -0.16418776 131.35437673 -0.14403808 119.87679279 C-0.1173674 104.34305988 -0.10668041 88.80931617 -0.09503365 73.2755661 C-0.07630437 48.85034848 -0.03643741 24.4252125 0 0 Z " fill="#0B59BE" transform="translate(498,862)"/>
<path d="M0 0 C2.23319052 0.01066425 4.46556503 0.00006844 6.69873047 -0.01269531 C20.7993761 -0.02838217 34.66056839 1.1688955 48.31201172 4.88574219 C49.27421631 5.14371582 50.2364209 5.40168945 51.2277832 5.66748047 C66.42287989 9.89492222 80.67095067 15.81816919 93.99951172 24.26074219 C94.95341797 24.77765625 95.90732422 25.29457031 96.89013672 25.82714844 C99.57489022 27.47011875 101.15767191 28.71018155 102.99951172 31.26074219 C103.17700195 34.13407898 103.17700195 34.13407898 102.80810547 37.49389648 C102.68411377 38.74351166 102.56012207 39.99312683 102.43237305 41.28060913 C102.3599942 41.93596523 102.28761536 42.59132133 102.21304321 43.26653671 C101.86472247 46.51956103 101.61598762 49.78053958 101.35107422 53.04125977 C101.11208811 55.82954343 100.86791474 58.61737225 100.62451172 61.40527344 C100.49375247 62.91069504 100.36305719 64.4161222 100.23242188 65.92155457 C99.96082282 69.04859442 99.68845895 72.17556641 99.41552734 75.30249023 C99.06777335 79.28735875 98.72197209 83.27239392 98.3767395 87.25748158 C98.10813288 90.3555328 97.83848985 93.45349318 97.56854248 96.55142784 C97.440658 98.02044621 97.31308706 99.48949191 97.18585205 100.95856667 C96.54053676 108.40295074 95.86949877 115.8386652 94.99951172 123.26074219 C91.41935916 121.96686249 88.65680764 120.42326367 85.62451172 118.13574219 C65.91051655 104.12077807 42.37681526 95.02488396 17.99951172 96.26074219 C16.99275391 96.29167969 15.98599609 96.32261719 14.94873047 96.35449219 C1.60697703 97.04667135 -9.53715183 101.53847366 -18.91455078 111.24121094 C-27.06897677 121.30369227 -27.53095149 133.81636197 -27.00048828 146.26074219 C-25.97572413 156.00440131 -20.46880024 165.96039285 -13.32861328 172.51464844 C2.47756123 184.36927932 20.43054272 184.39101477 39.25732422 184.57714844 C40.81584135 184.59558972 42.37435383 184.6144283 43.93286133 184.63366699 C49.66335655 184.70165592 55.39394041 184.76200101 61.12451172 184.82324219 C73.95326172 184.96761719 86.78201172 185.11199219 99.99951172 185.26074219 C99.99951172 211.00074219 99.99951172 236.74074219 99.99951172 263.26074219 C71.94951172 263.26074219 43.89951172 263.26074219 14.99951172 263.26074219 C14.99951172 339.16074219 14.99951172 415.06074219 14.99951172 493.26074219 C-17.67048828 493.26074219 -50.34048828 493.26074219 -84.00048828 493.26074219 C-84.00048828 417.36074219 -84.00048828 341.46074219 -84.00048828 263.26074219 C-101.82048828 263.26074219 -119.64048828 263.26074219 -138.00048828 263.26074219 C-138.00048828 239.17074219 -138.00048828 215.08074219 -138.00048828 190.26074219 C-115.07314143 191.34065345 -92.18428624 192.57518544 -69.29052734 194.20727539 C-57.86551288 195.0189938 -46.44061117 195.69952861 -35.00048828 196.26074219 C-35.00048828 193.62074219 -35.00048828 190.98074219 -35.00048828 188.26074219 C-36.22058594 188.13119141 -36.22058594 188.13119141 -37.46533203 187.99902344 C-57.64668302 185.52459458 -77.70115645 179.06951412 -93.00048828 165.26074219 C-93.68111328 164.720625 -94.36173828 164.18050781 -95.06298828 163.62402344 C-106.95615723 154.0305102 -113.17639739 141.28254036 -117.75048828 127.07324219 C-117.96157227 126.42000977 -118.17265625 125.76677734 -118.39013672 125.09375 C-124.78236397 104.25865788 -122.20439343 78.76823985 -113.00048828 59.26074219 C-99.22503409 33.69928671 -76.95435586 16.12201181 -49.27392578 7.79199219 C-45.54517294 6.72140131 -41.80288727 5.71562783 -38.03955078 4.77392578 C-36.11415328 4.28934897 -34.19754324 3.77023508 -32.28173828 3.24902344 C-21.53381086 0.63016594 -11.00548738 -0.06219141 0 0 Z " fill="#0B59BE" transform="translate(369.00048828125,732.7392578125)"/>
<path d="M0 0 C33 0 66 0 100 0 C100 120.12 100 240.24 100 364 C67 364 34 364 0 364 C0 243.88 0 123.76 0 0 Z " fill="#0C59BE" transform="translate(1647,862)"/>
<path d="M0 0 C32.67 0 65.34 0 99 0 C99 120.12 99 240.24 99 364 C66.33 364 33.66 364 0 364 C0 243.88 0 123.76 0 0 Z " fill="#0B59BE" transform="translate(1491,862)"/>
<path d="M0 0 C2.06951366 -0.00962453 4.1379977 -0.0406472 6.20727539 -0.07226562 C22.61580889 -0.20373084 39.51613178 4.06211947 52.03735352 15.24023438 C62.42795519 27.23843858 63.8502392 40.71673167 63.20776367 56.01904297 C62.34448547 67.2713425 56.99516359 76.60798769 48.89282227 84.26757812 C43.91454492 88.14334089 38.47468909 90.46127952 32.59985352 92.61523438 C31.58097046 92.99192261 31.58097046 92.99192261 30.54150391 93.3762207 C21.16942473 96.55644925 11.27407302 96.4211533 1.47485352 96.42773438 C0.5112793 96.43998047 -0.45229492 96.45222656 -1.44506836 96.46484375 C-7.8559305 96.47781245 -13.73599796 95.75021972 -19.96264648 94.24023438 C-21.37223633 93.90572266 -21.37223633 93.90572266 -22.81030273 93.56445312 C-33.83421876 90.3953203 -43.97962149 84.49475763 -50.59936523 74.85742188 C-57.79237167 61.42183628 -59.20485973 45.63430751 -55.00170898 31.02148438 C-50.5573926 19.12541948 -42.34240119 10.68614741 -30.96264648 5.24023438 C-20.48194123 1.40910347 -11.08575941 0.0310852 0 0 Z " fill="#0C59BE" transform="translate(1692.962646484375,726.759765625)"/>
<path d="M0 0 C1.97359497 0.00918457 1.97359497 0.00918457 3.98706055 0.01855469 C13.62837897 0.17347359 22.11956439 1.09607519 31.1875 4.4375 C32.50814453 4.90542969 32.50814453 4.90542969 33.85546875 5.3828125 C44.39277286 9.5836138 53.73040334 17.85334477 58.41015625 28.27734375 C63.09420621 41.29382429 63.18641664 57.18711336 57.546875 69.796875 C50.44889892 83.5848975 38.88991652 89.80632297 24.6875 94.625 C16.79271913 96.45771699 8.76095293 96.59827601 0.6875 96.5625 C-0.62154297 96.56830078 -0.62154297 96.56830078 -1.95703125 96.57421875 C-18.48430045 96.54973391 -34.66038273 93.32317447 -47.1875 81.6875 C-56.83791 71.26742539 -59.66192147 57.2453654 -59.16015625 43.40625 C-58.29465771 33.52595211 -55.04032349 25.13515044 -48.8125 17.4375 C-48.33425781 16.82390625 -47.85601563 16.2103125 -47.36328125 15.578125 C-35.6734033 2.26874255 -16.62408189 -0.13197939 0 0 Z " fill="#0B59BE" transform="translate(1538.8125,726.5625)"/>
</svg>
